<svg width="23" height="114" viewBox="0 0 23 114" fill="none" xmlns="http://www.w3.org/2000/svg">
<mask id="mask0_1560_3963" style="mask-type:alpha" maskUnits="userSpaceOnUse" x="0" y="0" width="23" height="114">
<path d="M23 0V114H0V0H23Z" fill="url(#paint0_linear_1560_3963)"/>
</mask>
<g mask="url(#mask0_1560_3963)">
<path fill-rule="evenodd" clip-rule="evenodd" d="M121.293 -44.4475C121.525 -44.7586 121.947 -44.8577 122.294 -44.6824C124.222 -44.0128 126.234 -43.6569 128.182 -43.0502C129.227 -42.7173 130.297 -42.4699 131.382 -42.3105C132.172 -42.2002 132.888 -41.8182 133.673 -41.6455L133.888 -41.604C134.825 -41.4492 135.702 -41.0344 136.635 -40.8127C137.422 -40.6257 138.123 -40.1597 138.924 -39.9423C140.085 -39.6122 141.228 -39.2238 142.351 -38.7788C143.104 -38.5807 143.815 -38.2469 144.449 -37.7936C144.607 -37.6545 144.781 -37.6817 144.94 -37.6208C145.631 -37.3803 146.306 -37.098 146.963 -36.7753C148.333 -36.0538 149.772 -35.4639 151.129 -34.7227C152.114 -34.1839 153.126 -33.707 154.124 -33.1992C155.085 -32.7099 156.036 -32.2016 156.977 -31.6745C159.185 -30.4487 161.319 -29.0951 163.369 -27.6204C164.96 -26.4462 166.483 -25.1834 167.931 -23.8378C169.149 -22.795 170.297 -21.6724 171.366 -20.4774C172.188 -19.4959 173.157 -18.6274 173.876 -17.5904C174.554 -16.6118 175.29 -15.664 175.988 -14.7096C177.604 -12.4991 179.128 -10.2312 180.558 -7.90604C181.402 -6.53794 182.221 -5.14317 183.084 -3.79315C184.096 -2.20917 184.92 -0.523112 185.926 1.06282C186.515 1.99236 187.001 3.03153 187.538 4.01231C188.058 4.96165 188.443 5.97765 189.022 6.89426C189.568 7.82837 190.067 8.78946 190.515 9.7738C190.963 10.6749 191.65 11.5346 191.732 12.6114C192.484 13.0839 192.469 13.9899 192.838 14.6736C193.208 15.3573 193.534 16.0729 193.937 16.7204C194.352 17.3875 194.756 18.0789 195.147 18.7501C195.942 20.1133 196.863 21.3928 197.656 22.7463C198.141 23.5719 198.838 24.1926 199.38 24.9543C200.426 26.4074 201.614 27.7533 202.926 28.9721C203.462 29.4513 203.923 30.0089 204.292 30.6259C204.56 31.101 205.114 31.1252 205.438 31.5261C205.961 32.175 206.593 32.7354 207.167 33.3434C207.317 33.5684 207.575 33.6958 207.845 33.6767L207.912 34.3874C208.119 34.6045 208.098 34.2557 208.271 34.2811C208.53 34.5087 208.868 34.6882 208.986 35.0938C209.096 35.4752 209.555 35.4155 209.783 35.7203C210.279 36.3811 211.302 36.5542 211.496 37.5189C212.264 37.8001 212.755 38.4598 213.389 38.9242C213.709 39.1322 213.943 39.4457 214.054 39.8082L214.077 39.8927C214.152 40.2603 214.842 40.0272 214.759 40.5684C216.018 41.1516 216.587 42.4216 217.396 43.4014C218.695 44.9739 220.121 46.4565 221.162 48.2597C221.683 49.1615 222.486 49.9485 223.034 50.8575C224.266 52.9004 225.64 54.8629 226.627 57.0534C227.035 57.9584 227.644 58.7734 228.043 59.6828L228.504 60.7341C229.193 62.3121 229.866 63.8979 230.436 65.5244C230.626 65.8784 230.712 66.2781 230.685 66.6781C230.597 67.1456 231.136 67.3182 231.268 67.7403C231.426 68.2406 231.327 68.7677 231.591 69.2784C231.736 69.5598 231.759 70.0568 231.927 70.3835C232.471 71.4462 232.341 72.6895 232.91 73.7388C233.055 74.1603 233.105 74.6086 233.054 75.0511C233.122 76.4152 233.783 77.6808 233.732 79.0428L233.72 79.2291C233.67 79.9339 233.784 80.6405 234.052 81.2935L234.16 81.5444C234.239 81.7306 234.304 81.9142 234.237 82.0651C233.956 82.6954 234.227 83.3161 234.253 83.9286C234.281 84.5845 234.536 85.2238 234.484 85.9091C234.36 86.5957 234.359 87.2992 234.481 87.9868C234.827 89.1232 234.663 90.2444 234.656 91.3692C234.653 91.9311 234.889 92.5482 234.386 93.073C234.13 93.34 234.923 93.5833 234.558 93.972L234.514 94.0142C234.238 94.2594 234.313 94.5437 234.476 94.8688C234.626 95.1661 234.124 95.5004 234.35 95.7888C234.577 96.0772 234.749 96.5307 234.578 96.629C234.152 96.8772 234.726 97.2772 234.362 97.454C234.328 97.4826 234.31 97.5251 234.313 97.5691C234.442 98.8056 233.879 99.9629 233.948 101.212C233.958 101.964 233.826 102.711 233.559 103.413C233.355 104.08 233.208 104.762 233.117 105.453C232.92 106.624 232.377 107.684 232.194 108.847C232.144 109.162 231.37 109.225 231.882 109.74C231.476 109.989 231.708 110.416 231.593 110.738C231.445 110.994 231.258 111.226 231.039 111.425C231.015 112.099 230.832 112.758 230.506 113.348C229.987 114.62 229.389 115.857 228.714 117.054L228.156 118.037C227.409 119.349 226.625 120.643 225.491 121.679C225.199 121.946 225.431 122.284 225.2 122.543C223.862 124.058 222.685 125.706 221.066 126.983C220.389 127.518 219.883 128.32 219.192 128.874C217.884 129.924 216.719 131.133 215.273 132.043L215.015 132.2C214.086 132.746 213.211 133.461 212.275 134.044C211.649 134.459 149.151 191.313 113.922 139.785C97.2155 115.348 45.6455 143.57 21.2152 111.96C-47.9479 22.4686 71.6896 -54.8385 118.717 -45.2762C119.039 -45.1497 119.376 -45.0652 119.719 -45.0248C120.302 -45.0631 120.873 -44.8533 121.293 -44.4475Z" fill="#AEE1CD"/>
</g>
<defs>
<linearGradient id="paint0_linear_1560_3963" x1="-164.003" y1="457" x2="-164.003" y2="-210" gradientUnits="userSpaceOnUse">
<stop stop-color="#F2F8FF"/>
<stop offset="1" stop-color="#E9F3FF"/>
</linearGradient>
</defs>
</svg>
