<svg width="136" height="317" viewBox="0 0 136 317" fill="none" xmlns="http://www.w3.org/2000/svg">
<path fill-rule="evenodd" clip-rule="evenodd" d="M253.562 69.9025C254.088 69.8985 254.542 70.2714 254.636 70.7862C255.489 73.3995 256.751 75.8494 257.688 78.4329C258.183 79.8249 258.791 81.1746 259.507 82.4686C260.035 83.407 260.207 84.4855 260.662 85.4676L260.793 85.7328C261.393 86.8641 261.661 88.1431 262.185 89.3243C262.627 90.3208 262.695 91.4516 263.115 92.4877C263.708 94.0021 264.224 95.5452 264.66 97.1111C265.062 98.0808 265.283 99.1154 265.31 100.164C265.289 100.446 265.461 100.611 265.525 100.831C265.83 101.768 266.077 102.722 266.265 103.689C266.604 105.745 267.143 107.769 267.451 109.827C267.673 111.322 267.984 112.795 268.251 114.279C268.507 115.707 268.735 117.141 268.934 118.579C269.413 121.944 269.693 125.334 269.772 128.731C269.801 131.391 269.679 134.051 269.406 136.697C269.272 138.851 268.994 140.994 268.573 143.111C268.182 144.789 268.034 146.535 267.498 148.148C266.992 149.67 266.567 151.229 266.103 152.753C265.029 156.281 263.817 159.756 262.466 163.178C261.673 165.193 260.832 167.205 260.074 169.226C259.184 171.597 258.03 173.85 257.134 176.216C256.608 177.602 255.879 178.967 255.255 180.34C254.652 181.668 253.864 182.905 253.345 184.271C252.779 185.615 252.144 186.929 251.444 188.209C250.833 189.421 250.463 190.856 249.362 191.817C249.466 193.008 248.471 193.727 248.032 194.678C247.593 195.629 247.084 196.56 246.711 197.517C246.328 198.504 245.909 199.499 245.501 200.464C244.674 202.423 244.04 204.449 243.221 206.399C242.723 207.589 242.621 208.841 242.238 210.041C241.519 212.342 241.032 214.709 240.784 217.107C240.704 218.071 240.476 219.018 240.109 219.915C239.814 220.589 240.241 221.203 240.071 221.876C239.796 222.964 239.706 224.098 239.517 225.207C239.395 225.55 239.469 225.931 239.71 226.204L238.994 226.853C238.928 227.251 239.29 226.946 239.404 227.153C239.369 227.616 239.451 228.124 239.108 228.58C238.784 229.007 239.225 229.452 239.081 229.943C238.771 231.012 239.42 232.25 238.533 233.241C238.857 234.295 238.543 235.356 238.56 236.415C238.595 236.926 238.448 237.432 238.145 237.845L238.072 237.938C237.735 238.317 238.553 238.869 237.898 239.219C238.296 241.044 237.384 242.684 236.985 244.348C236.343 247.019 235.903 249.752 234.799 252.332C234.248 253.623 234.052 255.124 233.515 256.449C232.308 259.43 231.304 262.496 229.737 265.333C229.089 266.505 228.704 267.82 228.044 268.986L227.282 270.334C226.134 272.354 224.965 274.362 223.668 276.294C223.439 276.784 223.076 277.201 222.621 277.497C222.042 277.782 222.296 278.501 221.946 278.984C221.533 279.56 220.88 279.881 220.542 280.578C220.355 280.963 219.835 281.39 219.618 281.835C218.912 283.282 217.456 284.15 216.784 285.613C216.446 286.111 216 286.527 215.479 286.832C214.055 288.011 213.223 289.747 211.704 290.797L211.492 290.936C210.686 291.453 210.013 292.149 209.525 292.967L209.341 293.286C209.203 293.521 209.057 293.74 208.839 293.791C207.926 294.001 207.474 294.794 206.831 295.319C206.142 295.881 205.658 296.674 204.872 297.174C204.025 297.598 203.261 298.167 202.616 298.856C201.667 300.15 200.315 300.882 199.09 301.787C198.478 302.24 198.002 302.994 197.021 302.879C196.521 302.821 196.907 303.869 196.186 303.793L196.105 303.78C195.612 303.682 195.366 303.994 195.147 304.433C194.946 304.834 194.173 304.566 194.045 305.043C193.918 305.521 193.567 306.073 193.321 305.97C192.703 305.714 192.739 306.655 192.249 306.406C192.19 306.394 192.129 306.409 192.083 306.447C190.848 307.589 189.132 307.924 187.834 309.01C187.026 309.631 186.108 310.095 185.127 310.377C184.238 310.7 183.377 311.095 182.553 311.558C181.12 312.296 179.527 312.572 178.115 313.319C177.732 313.52 177.03 312.741 176.89 313.708C176.288 313.475 176.015 314.07 175.572 314.207C175.172 314.256 174.768 314.244 174.372 314.17C173.621 314.691 172.757 315.029 171.85 315.157C170.046 315.632 168.213 315.993 166.363 316.239L164.839 316.437C162.804 316.699 160.758 316.907 158.705 316.529C158.177 316.432 158 316.955 157.53 316.917C154.79 316.711 152.039 316.782 149.328 316.08C148.193 315.788 146.908 315.894 145.742 315.602C143.53 315.048 141.265 314.778 139.094 313.963L138.712 313.814C137.359 313.26 135.867 312.9 134.468 312.367C133.506 312.032 20.6437 291.036 47.6829 211.414C60.5055 173.655 -12.3469 141.17 1.93183 89.2986C42.3555 -57.5517 224.204 8.21089 252.351 66.4641C252.477 66.9124 252.661 67.3427 252.899 67.7442C253.417 68.3382 253.658 69.1223 253.562 69.9025Z" fill="#AEE1CD"/>
</svg>
